<svg xmlns="http://www.w3.org/2000/svg" width="256" height="256" viewBox="0 0 256 256">
<style>
  @media (prefers-color-scheme: dark) {
    .bg { fill: #0d0d1a; }
    .claw { stroke: #00e5ff; }
    .claw-bg { stroke: #00e5ff; opacity: 0.15; }
    .slash { stroke: #ff3366; opacity: 0.6; }
    .ring { stroke: #00e5ff; opacity: 0.12; }
  }
  @media (prefers-color-scheme: light) {
    .bg { fill: #f0f0f8; }
    .claw { stroke: #0066aa; }
    .claw-bg { stroke: #0066aa; opacity: 0.1; }
    .slash { stroke: #cc1144; opacity: 0.45; }
    .ring { stroke: #0066aa; opacity: 0.08; }
  }
</style>

<rect width="256" height="256" rx="48" class="bg"/>

<circle cx="128" cy="128" r="90" fill="none" class="ring" stroke-width="0.8"/>
<circle cx="128" cy="128" r="70" fill="none" class="ring" stroke-width="0.5"/>

<g transform="translate(128, 125)">
  <path d="M-42,-62 Q-36,-14 -14,42 Q-10,54 -13,36" class="claw-bg" fill="none" stroke-width="18" stroke-linecap="round"/>
  <path d="M-4,-66 Q0,-18 6,40 Q8,54 7,34" class="claw-bg" fill="none" stroke-width="18" stroke-linecap="round"/>
  <path d="M34,-58 Q36,-12 24,44 Q22,56 24,35" class="claw-bg" fill="none" stroke-width="18" stroke-linecap="round"/>

  <path d="M-42,-62 Q-36,-14 -14,42 Q-10,54 -13,36" class="claw" fill="none" stroke-width="5" stroke-linecap="round"/>
  <path d="M-4,-66 Q0,-18 6,40 Q8,54 7,34" class="claw" fill="none" stroke-width="5.5" stroke-linecap="round"/>
  <path d="M34,-58 Q36,-12 24,44 Q22,56 24,35" class="claw" fill="none" stroke-width="5" stroke-linecap="round"/>

  <path d="M-50,-40 L-22,-28" class="slash" fill="none" stroke-width="1.8" stroke-linecap="round"/>
  <path d="M-2,-44 L18,-32" class="slash" fill="none" stroke-width="1.2" stroke-linecap="round"/>
  <path d="M28,-36 L46,-26" class="slash" fill="none" stroke-width="1.8" stroke-linecap="round"/>
</g>

</svg>
